<svg xmlns="http://www.w3.org/2000/svg" viewBox="0 0 133.91 133.92"><defs><style>.cls-1{fill:red;}</style></defs><title>Asset 9</title><g id="Layer_2" data-name="Layer 2"><g id="Layer_1-2" data-name="Layer 1"><path class="cls-1" d="M33.25,133.92a33.29,33.29,0,0,1-12.15-2.3,5.15,5.15,0,0,1-1.76-8.44l14.23-14.23a.46.46,0,0,0,0-.66l-7.95-7.95a.46.46,0,0,0-.66,0L10.74,114.57a5.15,5.15,0,0,1-8.44-1.76A33.24,33.24,0,0,1,42.1,68.63L68.64,42.09A33.22,33.22,0,0,1,112.8,2.3a5.15,5.15,0,0,1,1.76,8.44L100.34,25a.46.46,0,0,0,0,.66l7.95,7.95a.47.47,0,0,0,.66,0l14.23-14.23a5.15,5.15,0,0,1,8.44,1.76A33.24,33.24,0,0,1,91.81,65.28L65.26,91.83a33.22,33.22,0,0,1-32,42.09Z"/></g></g></svg>