<svg xmlns="http://www.w3.org/2000/svg" viewBox="0 0 386 395"><defs><style>.cls-1{fill:#ebe8de;}.cls-2{fill:red;}</style></defs><title>Asset 11</title><g id="Layer_2" data-name="Layer 2"><g id="Layer_1-2" data-name="Layer 1"><rect class="cls-1" width="386" height="395"/><path class="cls-2" d="M193.34,108.56A30.61,30.61,0,1,0,224,139.16,30.61,30.61,0,0,0,193.34,108.56Zm0,51a20.44,20.44,0,1,1,20.45-20.44A20.44,20.44,0,0,1,193.34,159.6Z"/><path class="cls-2" d="M249.83,149.86l-9.58-7.5c.08-1,.13-2.07.13-3.2a25.84,25.84,0,0,0-.13-3.2l9.61-7.51a7.92,7.92,0,0,0,1.92-10.17L240.6,99A7.92,7.92,0,0,0,231,95.52h-.15l-11.32,4.55a46.14,46.14,0,0,0-5.52-3.2L212.31,85a7.82,7.82,0,0,0-7.78-6.8H182.17a7.8,7.8,0,0,0-7.78,6.71l-1.73,12.06a47.48,47.48,0,0,0-5.49,3.2l-11.44-4.58A7.8,7.8,0,0,0,146.06,99l-11.11,19.32a7.89,7.89,0,0,0,1.92,10.17l9.58,7.5a25.54,25.54,0,0,0-.14,3.2,28.08,28.08,0,0,0,.13,3.2l-9.6,7.51a7.89,7.89,0,0,0-2,10V160L146,179.24a7.92,7.92,0,0,0,9.61,3.57h.15l11.32-4.55a46.29,46.29,0,0,0,5.52,3.2l1.72,12a7.83,7.83,0,0,0,7.85,6.74h22.37a7.8,7.8,0,0,0,7.78-6.71L214,181.4a47.61,47.61,0,0,0,5.5-3.2L231,182.77a7.84,7.84,0,0,0,9.68-3.46l11.13-19.43A7.89,7.89,0,0,0,249.83,149.86Zm-19,24.8-11.74-5.48a5.08,5.08,0,0,0-5,.38,37.65,37.65,0,0,1-8.58,4.38,5.08,5.08,0,0,0-3.32,3.8l-2.52,12.69-18.33-1-1.14-12.89a5.08,5.08,0,0,0-2.88-4.14,35.59,35.59,0,0,1-8-5.27,5.08,5.08,0,0,0-4.95-1l-12.26,4.18-8.33-16.41,10.59-7.41a5.08,5.08,0,0,0,2.16-4.53,35.07,35.07,0,0,1,.57-9.68,5.08,5.08,0,0,0-1.65-4.74L145.79,119l10-15.38,11.74,5.48a5.08,5.08,0,0,0,5-.4,37.67,37.67,0,0,1,8.58-4.38,5.08,5.08,0,0,0,3.32-3.8L187,87.9l18.34,1,1.12,12.89a5.08,5.08,0,0,0,2.88,4.14,35.59,35.59,0,0,1,8,5.27,5.08,5.08,0,0,0,4.95,1L234.51,108l8.31,16.41-10.59,7.41a5.08,5.08,0,0,0-2.16,4.53,34.43,34.43,0,0,1-.56,9.68,5.08,5.08,0,0,0,1.65,4.74l9.71,8.53Z"/></g></g></svg>